<svg viewBox="0 0 1200 620" xmlns="http://www.w3.org/2000/svg" font-family="ABC Favorit Mono, ui-monospace, 'SF Mono', Menlo, monospace" role="img" aria-labelledby="title desc">
  <!-- prime-intellect-data-viz: trusted -->
  <title id="title">Prime Agent system context</title>
  <desc id="desc">Users and clients enter Prime Agent through coding-agent, which composes the TUI, agent loop, provider layer, daemon workers, and Python runtime.</desc>
  <rect width="1200" height="620" fill="#111111"/>
  <text x="56" y="54" fill="#FFFFFF" font-size="24" font-weight="600">SYSTEM CONTEXT</text>
  <text x="56" y="82" fill="#7A7A7A" font-size="13" letter-spacing="1.2">LOCAL-FIRST EXECUTION · EXTERNAL PROVIDER BOUNDARY</text>

  <rect x="56" y="132" width="190" height="110" fill="none" stroke="#353535"/>
  <text x="76" y="166" fill="#7A7A7A" font-size="12" letter-spacing="1.4">HUMAN</text>
  <text x="76" y="196" fill="#FFFFFF" font-size="19">Terminal user</text>
  <text x="76" y="220" fill="#BCBCBC" font-size="13">interactive client</text>

  <rect x="56" y="284" width="190" height="110" fill="none" stroke="#353535"/>
  <text x="76" y="318" fill="#7A7A7A" font-size="12" letter-spacing="1.4">CLIENTS</text>
  <text x="76" y="348" fill="#FFFFFF" font-size="18">Print · JSON · RPC</text>
  <text x="76" y="372" fill="#BCBCBC" font-size="13">SDK entrypoints</text>

  <path d="M 252 187 L 318 187 M 318 187 L 310.5 182.5 M 318 187 L 310.5 191.5" fill="none" stroke="#B6FF3C" stroke-width="1.5"/>
  <path d="M 252 339 L 318 339 M 318 339 L 310.5 334.5 M 318 339 L 310.5 343.5" fill="none" stroke="#B6FF3C" stroke-width="1.5"/>

  <rect x="324" y="112" width="480" height="332" fill="none" stroke="#B6FF3C" stroke-width="1.5"/>
  <text x="348" y="146" fill="#B6FF3C" font-size="12" letter-spacing="1.5">PRIME AGENT</text>
  <text x="348" y="178" fill="#FFFFFF" font-size="22" font-weight="600">packages/coding-agent</text>
  <text x="348" y="202" fill="#BCBCBC" font-size="13">CLI · composition · sessions · tools · resources</text>

  <rect x="348" y="238" width="132" height="76" fill="none" stroke="#353535"/>
  <text x="364" y="270" fill="#FFFFFF" font-size="16">packages/tui</text>
  <text x="364" y="294" fill="#7A7A7A" font-size="12">render + input</text>

  <rect x="496" y="238" width="132" height="76" fill="none" stroke="#353535"/>
  <text x="512" y="270" fill="#FFFFFF" font-size="16">packages/agent</text>
  <text x="512" y="294" fill="#7A7A7A" font-size="12">agent loop</text>

  <rect x="644" y="238" width="136" height="76" fill="none" stroke="#353535"/>
  <text x="660" y="270" fill="#FFFFFF" font-size="16">packages/ai</text>
  <text x="660" y="294" fill="#7A7A7A" font-size="12">provider streams</text>

  <rect x="348" y="338" width="205" height="76" fill="none" stroke="#353535"/>
  <text x="364" y="370" fill="#FFFFFF" font-size="16">daemon workers</text>
  <text x="364" y="394" fill="#7A7A7A" font-size="12">runtime ownership</text>

  <rect x="569" y="338" width="211" height="76" fill="none" stroke="#353535"/>
  <text x="585" y="370" fill="#FFFFFF" font-size="16">prime-agent-runtime</text>
  <text x="585" y="394" fill="#7A7A7A" font-size="12">Python rlm shim</text>

  <path d="M 804 276 L 884 276 M 884 276 L 876.5 271.5 M 884 276 L 876.5 280.5" fill="none" stroke="#B6FF3C" stroke-width="1.5"/>
  <rect x="890" y="216" width="254" height="120" fill="none" stroke="#353535"/>
  <text x="912" y="250" fill="#7A7A7A" font-size="12" letter-spacing="1.4">NETWORK BOUNDARY</text>
  <text x="912" y="282" fill="#FFFFFF" font-size="19">Model providers</text>
  <text x="912" y="308" fill="#BCBCBC" font-size="13">authenticated streaming APIs</text>

  <path d="M 804 376 L 884 376 M 884 376 L 876.5 371.5 M 884 376 L 876.5 380.5" fill="none" stroke="#B6FF3C" stroke-width="1.5"/>
  <rect x="890" y="356" width="254" height="106" fill="none" stroke="#353535"/>
  <text x="912" y="390" fill="#7A7A7A" font-size="12" letter-spacing="1.4">LOCAL ENVIRONMENT</text>
  <text x="912" y="422" fill="#FFFFFF" font-size="19">Workspace + processes</text>
  <text x="912" y="446" fill="#BCBCBC" font-size="13">user permissions</text>

  <line x1="56" y1="516" x2="1144" y2="516" stroke="#353535"/>
  <text x="56" y="550" fill="#B6FF3C" font-size="12" letter-spacing="1.4">ACTIVE PATH</text>
  <text x="174" y="550" fill="#BCBCBC" font-size="13">client → product runtime → provider / local tools</text>
  <text x="56" y="580" fill="#7A7A7A" font-size="12">Process boundaries improve ownership and recovery; they do not sandbox untrusted code.</text>
</svg>
